<?xml version="1.0" ?><!DOCTYPE svg  PUBLIC '-//W3C//DTD SVG 1.1//EN'
		'http://www.w3.org/Graphics/SVG/1.1/DTD/svg11.dtd'><!-- Uploaded to: SVG Repo, www.svgrepo.com, Transformed by: SVG Repo Mixer Tools -->
<svg fill="#000000" viewBox="0 0 20 20" xmlns="http://www.w3.org/2000/svg">


	<g id="SVGRepo_iconCarrier">
		<circle cx="10" cy="10" fill="#FFFFFF" r="9"/>

		<path d="M10 15c-1.631 0-3.064-.792-3.978-2 .914-1.208 2.347-2 3.978-2 1.631 0 3.064.792 3.978 2-.914 1.208-2.347 2-3.978 2zm0-10c1.104 0 2 .897 2 2s-.896 2-2 2-2-.897-2-2 .896-2 2-2zm0-3c-4.411 0-8 3.589-8 8s3.589 8 8 8 8-3.589 8-8-3.589-8-8-8z"
		      fill="#b6b8b9"/>

	</g>

</svg>